# xmcd
#
# Track frame offsets:
#        300
#        14714
#        34745
#        55956
#        70880
#        84377
#        99430
#        115086
#        130523
#
# Disc length: 1938 seconds
#
# Revision: 0
# Processed by: cddbd v1.5.2PL0 Copyright (c) Steve Scherf et al.
# Submitted via: CDGFix 3.8
#
DISCID=71078e09
DTITLE=Various Artist - SSC447
DYEAR=1900
DGENRE=Karaoke
TTITLE0=Carrie Underwood - Church Bells
TTITLE1=Blake Shelton and Stefani Gwen - Go Ahead And Break My Heart
TTITLE2=Luke Bryan - Huntin' Fishin' Lovin' Everyday
TTITLE3=Florida Georgia Line - H.O.L.Y.
TTITLE4=Dierks Bentley - Different For Girls
TTITLE5=Jason Aldean - Lights Come On
TTITLE6=Jon Pardi - Head Over Boots
TTITLE7=Old Dominion - Snapback
TTITLE8=Kelsea Ballerini - Peter Pan
EXTD=
EXTT0=
EXTT1=
EXTT2=
EXTT3=
EXTT4=
EXTT5=
EXTT6=
EXTT7=
EXTT8=
PLAYORDER=
